<svg xmlns="http://www.w3.org/2000/svg" viewBox="0 0 562.06 562.06"><defs><style>.cls-1{fill:#fff;}</style></defs><title>Biskit-logo</title><g id="Layer_2" data-name="Layer 2"><g id="Laag_1" data-name="Laag 1"><rect width="562.06" height="562.06"/><path class="cls-1" d="M395.28,294.27q.84-.86-2.55-5.94-3.81-5.93-14.83-12.93t-20.35-9.11l-11-3,11.87-11.86q19.92-20.36,19.92-51.29v-2.54q0-47.06-30.09-67.4a75.66,75.66,0,0,0-31.79-13.14q-16.53-2.53-77.14-3.39l-73.75-.85V432.44h76.71q75.45,0,75.45-3a44.17,44.17,0,0,0-1.7-5.09q-1.69-4.67-4.45-12.93T306.69,396l-9.75-30.94q-7.62,0-23.31.85t-23.74.84V301.89l22.47,1.28q39,2.11,45.77,15.68a7.24,7.24,0,0,1,1.49,2.54,26.17,26.17,0,0,0,1.06,2.55l.85.84q2.12,0,37.3-14.62T395.28,294.27Zm-109.36-61q-7.21,3.39-21.62,5.09l-14.41,1.27V179l14.41.84q14.42,1.71,21.62,5.09,14,7.64,14,24.16T285.92,233.23Z"/><polygon class="cls-1" points="342.88 444.92 364.57 453 382.62 431.35 339.19 418.42 342.88 444.92"/><polygon class="cls-1" points="402.85 409.97 438.93 335.46 366.22 336.27 345.05 386.57 402.85 409.97"/></g></g></svg>